<svg width="138" height="106" viewBox="0 0 138 106" fill="none" xmlns="http://www.w3.org/2000/svg">
<g filter="url(#filter0_d_419_2893)">
<path d="M2 2H121C128.18 2 134 7.8203 134 15V45C134 76.4802 108.48 102 77 102H2V2Z" fill="white"/>
<path d="M2.5 2.5H121C127.904 2.5 133.5 8.09644 133.5 15V45C133.5 76.2041 108.204 101.5 77 101.5H2.5V2.5Z" stroke="#FFB800"/>
</g>
<mask id="mask0_419_2893" style="mask-type:alpha" maskUnits="userSpaceOnUse" x="20" y="2" width="95" height="95">
<circle cx="67.5" cy="49.5" r="47.5" fill="#C4C4C4"/>
</mask>
<g mask="url(#mask0_419_2893)">
<path d="M72.7135 37.1841C72.7135 37.1841 73.586 46.0289 74.3333 45.5308C76.8333 43.8641 77.3893 39.5336 77.3893 33.5488C77.3895 22.3033 63.1583 19.7629 58.2362 19.1067C50.1667 18.0308 50.6828 25.4423 50.0533 25.6503C39.8025 33.9596 47.6667 45.5308 47.6667 45.5308C47.6667 45.5308 49.0643 31.5754 54.3697 31.8869C64.3508 38.5344 72.7135 37.1841 72.7135 37.1841Z" fill="#FFB800"/>
<path fill-rule="evenodd" clip-rule="evenodd" d="M45.0543 64.5999C43.622 65.4793 42.6667 67.0601 42.6667 68.8641C42.6667 71.6254 44.9052 73.8641 47.6667 73.8641C50.4282 73.8641 52.6667 71.6254 52.6667 68.8641C52.6667 66.3239 50.7727 64.2263 48.3198 63.9063C48.2652 63.7106 48.2082 63.4849 48.1502 63.2316C47.9505 62.3593 47.76 61.2528 47.6182 60.1159C47.476 58.9773 47.3878 57.8481 47.382 56.9264C47.3798 56.5888 47.389 56.2944 47.4077 56.0476C48.0488 55.8636 48.6918 55.6978 49.3333 55.5518C50.0688 55.3843 50.5042 56.2524 50.8568 56.9559C50.906 57.0538 50.9535 57.1486 51 57.2369H57.7732C59.2995 57.2366 60.054 57.2368 60.8172 57.2369H60.8173H60.8175H60.8178C61.5635 57.2371 62.3177 57.2373 63.8085 57.2369H70.5822C70.9625 56.5143 71.8287 55.3609 72.6667 55.5518C73.5605 55.7553 74.4575 55.9969 75.3482 56.2733L75.3427 56.2761C75.3407 56.2723 75.3408 56.2729 75.3428 56.2784V56.2786C75.3507 56.3021 75.3873 56.4108 75.4237 56.6471C75.4652 56.9163 75.494 57.2659 75.5058 57.6868C75.5295 58.5274 75.4823 59.5491 75.3828 60.5784C75.2832 61.6068 75.1352 62.6023 74.9685 63.3879C74.9317 63.5619 74.8948 63.7209 74.8587 63.8641H72.6667C72.0353 63.8641 71.4583 64.2208 71.176 64.7854L69.5093 68.1188C69.3935 68.3501 69.3333 68.6053 69.3333 68.8641V72.1974C69.3333 73.1179 70.0795 73.8641 71 73.8641H74.3333V70.5308H72.6667V69.2574L73.6967 67.1974H78.3033L79.3333 69.2574V70.5308H77.6667V73.8641H81C81.9205 73.8641 82.6667 73.1179 82.6667 72.1974V68.8641C82.6667 68.6053 82.6065 68.3501 82.4907 68.1188L80.824 64.7854C80.5417 64.2208 79.9647 63.8641 79.3333 63.8641H78.2738C78.4518 62.9763 78.6 61.9388 78.7005 60.8996C78.8093 59.7763 78.8663 58.6104 78.8378 57.5934L78.8365 57.5476C85.4825 60.3554 91 64.9743 91 69.8139V78.8641H31V69.8139C31 64.7601 37.0166 59.9473 44.0517 57.1858C44.0707 58.2218 44.1688 59.3944 44.3103 60.5288C44.4632 61.7531 44.6715 62.9729 44.901 63.9756C44.9502 64.1904 45.0013 64.3996 45.0543 64.5999ZM47.6667 70.5553C48.564 70.5553 49.3333 69.8211 49.3333 68.8641C49.3333 67.9069 48.564 67.1729 47.6667 67.1729C46.7693 67.1729 46 67.9069 46 68.8641C46 69.8211 46.7693 70.5553 47.6667 70.5553Z" fill="#FFB800"/>
<mask id="mask1_419_2893" style="mask-type:luminance" maskUnits="userSpaceOnUse" x="31" y="55" width="60" height="24">
<path fill-rule="evenodd" clip-rule="evenodd" d="M45.0543 64.5999C43.622 65.4793 42.6667 67.0601 42.6667 68.8641C42.6667 71.6254 44.9052 73.8641 47.6667 73.8641C50.4282 73.8641 52.6667 71.6254 52.6667 68.8641C52.6667 66.3239 50.7727 64.2263 48.3198 63.9063C48.2652 63.7106 48.2082 63.4849 48.1502 63.2316C47.9505 62.3593 47.76 61.2528 47.6182 60.1159C47.476 58.9773 47.3878 57.8481 47.382 56.9264C47.3798 56.5888 47.389 56.2944 47.4077 56.0476C48.0488 55.8636 48.6918 55.6978 49.3333 55.5518C50.0688 55.3843 50.5042 56.2524 50.8568 56.9559C50.906 57.0538 50.9535 57.1486 51 57.2369H57.7732C59.2995 57.2366 60.054 57.2368 60.8172 57.2369H60.8173H60.8175H60.8178C61.5635 57.2371 62.3177 57.2373 63.8085 57.2369H70.5822C70.9625 56.5143 71.8287 55.3609 72.6667 55.5518C73.5605 55.7553 74.4575 55.9969 75.3482 56.2733L75.3427 56.2761C75.3407 56.2723 75.3408 56.2729 75.3428 56.2784V56.2786C75.3507 56.3021 75.3873 56.4108 75.4237 56.6471C75.4652 56.9163 75.494 57.2659 75.5058 57.6868C75.5295 58.5274 75.4823 59.5491 75.3828 60.5784C75.2832 61.6068 75.1352 62.6023 74.9685 63.3879C74.9317 63.5619 74.8948 63.7209 74.8587 63.8641H72.6667C72.0353 63.8641 71.4583 64.2208 71.176 64.7854L69.5093 68.1188C69.3935 68.3501 69.3333 68.6053 69.3333 68.8641V72.1974C69.3333 73.1179 70.0795 73.8641 71 73.8641H74.3333V70.5308H72.6667V69.2574L73.6967 67.1974H78.3033L79.3333 69.2574V70.5308H77.6667V73.8641H81C81.9205 73.8641 82.6667 73.1179 82.6667 72.1974V68.8641C82.6667 68.6053 82.6065 68.3501 82.4907 68.1188L80.824 64.7854C80.5417 64.2208 79.9647 63.8641 79.3333 63.8641H78.2738C78.4518 62.9763 78.6 61.9388 78.7005 60.8996C78.8093 59.7763 78.8663 58.6104 78.8378 57.5934L78.8365 57.5476C85.4825 60.3554 91 64.9743 91 69.8139V78.8641H31V69.8139C31 64.7601 37.0166 59.9473 44.0517 57.1858C44.0707 58.2218 44.1688 59.3944 44.3103 60.5288C44.4632 61.7531 44.6715 62.9729 44.901 63.9756C44.9502 64.1904 45.0013 64.3996 45.0543 64.5999ZM47.6667 70.5553C48.564 70.5553 49.3333 69.8211 49.3333 68.8641C49.3333 67.9069 48.564 67.1729 47.6667 67.1729C46.7693 67.1729 46 67.9069 46 68.8641C46 69.8211 46.7693 70.5553 47.6667 70.5553Z" fill="white"/>
</mask>
<g mask="url(#mask1_419_2893)">
<path d="M45.0543 64.5999L46.7983 67.4406L48.9098 66.1442L48.277 63.7486L45.0543 64.5999ZM48.3198 63.9062L45.1091 64.8022L45.7018 66.9264L47.8886 67.2116L48.3198 63.9062ZM48.1501 63.2316L51.3995 62.4877L48.1501 63.2316ZM47.6181 60.1159L50.9258 59.7032L47.6181 60.1159ZM47.382 56.9264L44.0488 56.9474L47.382 56.9264ZM47.4076 56.0476L46.488 52.8436L44.2583 53.4836L44.0836 55.7967L47.4076 56.0476ZM49.3333 55.5517L48.5931 52.3016L49.3333 55.5517ZM50.8568 56.9559L53.8366 55.4617L50.8568 56.9559ZM51 57.2369L48.0505 58.7897L48.9878 60.5702H51V57.2369ZM57.7731 57.2369V60.5702H57.774L57.7731 57.2369ZM60.8171 57.2369L60.8165 60.5702H60.8171V57.2369ZM60.8178 57.2369L60.8185 53.9036H60.8178V57.2369ZM63.8085 57.2369V53.9036H63.8078L63.8085 57.2369ZM70.5821 57.2369V60.5702H72.5943L73.5316 58.7897L70.5821 57.2369ZM72.6666 55.5517L73.4068 52.3016L72.6666 55.5517ZM75.3481 56.2732L76.8388 59.2547L84.2556 55.5466L76.3358 53.0896L75.3481 56.2732ZM75.3426 56.2761L72.3623 57.7692L73.8543 60.7469L76.8331 59.2576L75.3426 56.2761ZM75.3428 56.2784L78.5903 55.5272L78.5538 55.3692L78.5021 55.2156L75.3428 56.2784ZM75.3428 56.2786L72.0951 57.0297L72.1321 57.1896L72.1846 57.3451L75.3428 56.2786ZM75.3428 56.2786L78.5021 55.2157L78.501 55.2119L75.3428 56.2786ZM75.4236 56.6471L78.7181 56.1396L75.4236 56.6471ZM75.5058 57.6867L72.1738 57.7802L75.5058 57.6867ZM75.3828 60.5784L72.065 60.2574L75.3828 60.5784ZM74.9685 63.3879L78.2293 64.0797V64.0796L74.9685 63.3879ZM74.8586 63.8641V67.1974H77.4548L78.0905 64.6802L74.8586 63.8641ZM71.176 64.7854L74.1573 66.2761L71.176 64.7854ZM69.5093 68.1187L72.4906 69.6094L69.5093 68.1187ZM74.3333 73.8641V77.1974H77.6666V73.8641H74.3333ZM74.3333 70.5307H77.6666V67.1974H74.3333V70.5307ZM72.6666 70.5307H69.3333V73.8641H72.6666V70.5307ZM72.6666 69.2574L69.6851 67.7667L69.3333 68.4706V69.2574H72.6666ZM73.6966 67.1974V63.8641H71.6366L70.7153 65.7066L73.6966 67.1974ZM78.3033 67.1974L81.2846 65.7066L80.3633 63.8641H78.3033V67.1974ZM79.3333 69.2574H82.6666V68.4706L82.3148 67.7667L79.3333 69.2574ZM79.3333 70.5307V73.8641H82.6666V70.5307H79.3333ZM77.6666 70.5307V67.1974H74.3333V70.5307H77.6666ZM77.6666 73.8641H74.3333V77.1974H77.6666V73.8641ZM82.4906 68.1187L85.4721 66.6279L82.4906 68.1187ZM80.824 64.7854L83.8055 63.2946L80.824 64.7854ZM78.2738 63.8641L75.0056 63.2084L74.2055 67.1974H78.2738V63.8641ZM78.7005 60.8996L82.0183 61.2206L78.7005 60.8996ZM78.8378 57.5934L82.1698 57.4999V57.4956L78.8378 57.5934ZM78.8365 57.5476L80.1338 54.4771L75.3523 52.4567L75.5046 57.6454L78.8365 57.5476ZM91 78.8641V82.1974H94.3333V78.8641H91ZM31 78.8641H27.6666V82.1974H31V78.8641ZM44.0516 57.1857L47.3845 57.1249L47.2971 52.3307L42.8336 54.0829L44.0516 57.1857ZM44.3103 60.5287L41.0026 60.9414L44.3103 60.5287ZM44.901 63.9756L41.6516 64.7196L44.901 63.9756ZM46 68.8641C46 68.2666 46.3121 67.7391 46.7983 67.4406L43.3101 61.7592C40.9316 63.2196 39.3333 65.8537 39.3333 68.8641H46ZM47.6666 70.5307C46.7461 70.5307 46 69.7846 46 68.8641H39.3333C39.3333 73.4664 43.0643 77.1974 47.6666 77.1974V70.5307ZM49.3333 68.8641C49.3333 69.7846 48.5871 70.5307 47.6666 70.5307V77.1974C52.269 77.1974 56 73.4664 56 68.8641H49.3333ZM47.8886 67.2116C48.7028 67.3179 49.3333 68.0199 49.3333 68.8641H56C56 64.6279 52.8423 61.1347 48.751 60.6009L47.8886 67.2116ZM51.5305 63.0104C51.4923 62.8736 51.448 62.6992 51.3995 62.4877L44.901 63.9756C44.9685 64.2704 45.0381 64.5476 45.1091 64.8022L51.5305 63.0104ZM51.3995 62.4877C51.2296 61.7456 51.0566 60.7522 50.9258 59.7032L44.3103 60.5287C44.4631 61.7531 44.6715 62.9729 44.901 63.9756L51.3995 62.4877ZM50.9258 59.7032C50.7941 58.6479 50.72 57.6564 50.7153 56.9056L44.0488 56.9474C44.0556 58.0397 44.1578 59.3064 44.3103 60.5287L50.9258 59.7032ZM50.7153 56.9056C50.7136 56.6352 50.7213 56.4342 50.7315 56.2984L44.0836 55.7967C44.0566 56.1546 44.0461 56.5424 44.0488 56.9474L50.7153 56.9056ZM48.5931 52.3016C47.89 52.4617 47.1871 52.6429 46.488 52.8436L48.3273 59.2516C48.9105 59.0841 49.4936 58.9339 50.0735 58.8019L48.5931 52.3016ZM53.8366 55.4617C53.7093 55.2079 53.3308 54.4091 52.7633 53.7507C52.131 53.0172 50.6811 51.8262 48.5931 52.3016L50.0735 58.8019C49.5163 58.9287 48.9333 58.8571 48.44 58.6302C48.0113 58.4332 47.78 58.1802 47.714 58.1036C47.6426 58.0211 47.633 57.9891 47.6818 58.0744C47.7296 58.1577 47.782 58.2602 47.8771 58.4499L53.8366 55.4617ZM53.9495 55.6841C53.9213 55.6304 53.889 55.5662 53.8366 55.4617L47.8771 58.4499C47.923 58.5414 47.9856 58.6667 48.0505 58.7897L53.9495 55.6841ZM57.7731 53.9036H51V60.5702H57.7731V53.9036ZM60.8178 53.9036C60.0543 53.9034 59.2995 53.9032 57.7725 53.9036L57.774 60.5702C59.2996 60.5699 60.0535 60.5701 60.8165 60.5702L60.8178 53.9036ZM60.8173 53.9036H60.8171V60.5702H60.8173V53.9036ZM60.8175 53.9036H60.8173V60.5702H60.8175V53.9036ZM60.8178 53.9036H60.8175V60.5702H60.8178V53.9036ZM60.8178 53.9036V60.5702V53.9036ZM60.8178 53.9036V60.5702V53.9036ZM60.8178 53.9036V60.5702V53.9036ZM63.8078 53.9036C62.3176 53.9039 61.5638 53.9037 60.8185 53.9036L60.8171 60.5702C61.563 60.5704 62.3176 60.5706 63.8091 60.5702L63.8078 53.9036ZM70.5821 53.9036H63.8085V60.5702H70.5821V53.9036ZM73.4068 52.3016C71.2483 51.8101 69.6856 53.1264 69.142 53.6496C68.4438 54.3211 67.9345 55.1104 67.6325 55.6841L73.5316 58.7897C73.5585 58.7389 73.605 58.6606 73.6623 58.5802C73.6895 58.5422 73.7141 58.5109 73.7343 58.4869C73.755 58.4624 73.7655 58.4524 73.7636 58.4541C73.7628 58.4549 73.7388 58.4782 73.6895 58.5137C73.6413 58.5484 73.5495 58.6091 73.413 58.6707C73.1336 58.7969 72.5946 58.9539 71.9265 58.8019L73.4068 52.3016ZM76.3358 53.0896C75.366 52.7887 74.3863 52.5247 73.4068 52.3016L71.9265 58.8019C72.7345 58.9859 73.549 59.2052 74.3605 59.4569L76.3358 53.0896ZM76.8331 59.2576L76.8388 59.2547L73.8575 53.2917L73.852 53.2946L76.8331 59.2576ZM78.5021 55.2156C78.4988 55.2057 78.5056 55.2261 78.5125 55.2471C78.5155 55.2564 78.5275 55.2932 78.5415 55.3409C78.5483 55.3647 78.5616 55.4114 78.5765 55.4707C78.5858 55.5084 78.6218 55.6527 78.6465 55.8412C78.6575 55.9259 78.6835 56.1417 78.6715 56.4186C78.6683 56.4889 78.6643 57.4841 77.9121 58.3954C77.4198 58.9919 76.666 59.4734 75.7333 59.5837C74.9063 59.6817 74.263 59.4491 73.9295 59.2932C73.3223 59.0094 72.9628 58.6109 72.8971 58.5402C72.6776 58.3034 72.5426 58.0846 72.527 58.0599C72.4821 57.9891 72.4495 57.9317 72.435 57.9059C72.4046 57.8517 72.3825 57.8087 72.3776 57.7994C72.3698 57.7839 72.3638 57.7719 72.3623 57.7692L78.3228 54.7829C78.321 54.7792 78.3145 54.7664 78.3063 54.7502C78.3011 54.7402 78.2786 54.6966 78.2481 54.6422C78.2335 54.6161 78.2008 54.5586 78.1558 54.4877C78.14 54.4627 78.0051 54.2439 77.7855 54.0071C77.7198 53.9364 77.3603 53.5379 76.7531 53.2541C76.4196 53.0981 75.7761 52.8654 74.9491 52.9634C74.0166 53.0739 73.2628 53.5552 72.7705 54.1519C72.0183 55.0632 72.0141 56.0584 72.0111 56.1287C71.999 56.4056 72.025 56.6216 72.0361 56.7062C72.0608 56.8947 72.0968 57.0392 72.1061 57.0771C72.121 57.1366 72.1343 57.1836 72.1413 57.2074C72.1555 57.2557 72.1676 57.2931 72.171 57.3034C72.1756 57.3181 72.1796 57.3297 72.1808 57.3334C72.1816 57.3359 72.1823 57.3381 72.1826 57.3391C72.1831 57.3402 72.1835 57.3412 72.1835 57.3414L78.5021 55.2156ZM78.5903 55.5272L72.0951 57.0297L78.5903 55.5272ZM78.501 55.2119H78.5008L72.1846 57.3451H72.1848L78.501 55.2119ZM78.7181 56.1396C78.651 55.7031 78.5671 55.4087 78.5021 55.2157L72.1835 57.3414C72.1835 57.3414 72.179 57.3284 72.1738 57.3119C72.1686 57.2957 72.1635 57.2792 72.1585 57.2626C72.1485 57.2291 72.1411 57.2012 72.1358 57.1797C72.1253 57.1372 72.125 57.1266 72.1293 57.1547L78.7181 56.1396ZM78.8378 57.5934C78.8236 57.0856 78.7875 56.5889 78.7181 56.1396L72.1293 57.1547C72.143 57.2434 72.1645 57.4462 72.1738 57.7802L78.8378 57.5934ZM78.7005 60.8996C78.8093 59.7762 78.8663 58.6104 78.8378 57.5934L72.1738 57.7802C72.1925 58.4444 72.1555 59.3217 72.065 60.2574L78.7005 60.8996ZM78.2293 64.0796C78.4273 63.1466 78.5918 62.0241 78.7005 60.8996L72.065 60.2574C71.9746 61.1894 71.8431 62.0579 71.7078 62.6962L78.2293 64.0796ZM78.0905 64.6802C78.1383 64.4909 78.1846 64.2902 78.2293 64.0797L71.7078 62.6962C71.6786 62.8337 71.6513 62.9509 71.6268 63.0477L78.0905 64.6802ZM72.6666 67.1974H74.8586V60.5307H72.6666V67.1974ZM74.1573 66.2761C73.875 66.8407 73.298 67.1974 72.6666 67.1974V60.5307C70.7728 60.5307 69.0415 61.6007 68.1945 63.2946L74.1573 66.2761ZM72.4906 69.6094L74.1573 66.2761L68.1945 63.2946L66.5278 66.6279L72.4906 69.6094ZM72.6666 68.8641C72.6666 69.1227 72.6065 69.3779 72.4906 69.6094L66.5278 66.6279C66.1806 67.3222 66 68.0877 66 68.8641H72.6666ZM72.6666 72.1974V68.8641H66V72.1974H72.6666ZM71 70.5307C71.9205 70.5307 72.6666 71.2769 72.6666 72.1974H66C66 74.9587 68.2385 77.1974 71 77.1974V70.5307ZM74.3333 70.5307H71V77.1974H74.3333V70.5307ZM71 70.5307V73.8641H77.6666V70.5307H71ZM72.6666 73.8641H74.3333V67.1974H72.6666V73.8641ZM69.3333 69.2574V70.5307H76V69.2574H69.3333ZM70.7153 65.7066L69.6851 67.7667L75.6481 70.7483L76.6781 68.6881L70.7153 65.7066ZM78.3033 63.8641H73.6966V70.5307H78.3033V63.8641ZM82.3148 67.7667L81.2846 65.7066L75.3218 68.6881L76.3518 70.7483L82.3148 67.7667ZM82.6666 70.5307V69.2574H76V70.5307H82.6666ZM77.6666 73.8641H79.3333V67.1974H77.6666V73.8641ZM81 73.8641V70.5307H74.3333V73.8641H81ZM81 70.5307H77.6666V77.1974H81V70.5307ZM79.3333 72.1974C79.3333 71.2769 80.0795 70.5307 81 70.5307V77.1974C83.7615 77.1974 86 74.9587 86 72.1974H79.3333ZM79.3333 68.8641V72.1974H86V68.8641H79.3333ZM79.5093 69.6094C79.3935 69.3779 79.3333 69.1227 79.3333 68.8641H86C86 68.0877 85.8193 67.3222 85.4721 66.6279L79.5093 69.6094ZM77.8426 66.2761L79.5093 69.6094L85.4721 66.6279L83.8055 63.2946L77.8426 66.2761ZM79.3333 67.1974C78.702 67.1974 78.125 66.8407 77.8426 66.2761L83.8055 63.2946C82.9585 61.6007 81.2271 60.5307 79.3333 60.5307V67.1974ZM78.2738 67.1974H79.3333V60.5307H78.2738V67.1974ZM75.3828 60.5784C75.291 61.5264 75.1576 62.4503 75.0056 63.2084L81.542 64.5196C81.7461 63.5022 81.909 62.3511 82.0183 61.2206L75.3828 60.5784ZM75.5058 57.6867C75.5295 58.5274 75.4823 59.5491 75.3828 60.5784L82.0183 61.2206C82.1361 60.0036 82.2033 58.6932 82.1698 57.4999L75.5058 57.6867ZM75.5046 57.6454L75.506 57.6912L82.1698 57.4956L82.1685 57.4497L75.5046 57.6454ZM94.3333 69.8139C94.3333 66.1011 92.2411 62.9229 89.7126 60.5081C87.1358 58.0474 83.7206 55.9924 80.1338 54.4771L77.5391 60.6181C80.5983 61.9106 83.2648 63.5689 85.1083 65.3294C87 67.1359 87.6666 68.6869 87.6666 69.8139H94.3333ZM94.3333 78.8641V69.8139H87.6666V78.8641H94.3333ZM31 82.1974H91V75.5308H31V82.1974ZM27.6666 69.8139V78.8641H34.3333V69.8139H27.6666ZM42.8336 54.0829C39.0406 55.5717 35.3963 57.6576 32.6379 60.1806C29.9405 62.6477 27.6666 65.9404 27.6666 69.8139H34.3333C34.3333 68.6336 35.0677 66.9929 37.1374 65.0998C39.146 63.2626 42.0276 61.5611 45.2696 60.2886L42.8336 54.0829ZM40.719 57.2464C40.7405 58.4319 40.8511 59.7267 41.0026 60.9414L47.6181 60.1159C47.4865 59.0619 47.4006 58.0114 47.3845 57.1249L40.719 57.2464ZM41.0026 60.9414C41.1665 62.2536 41.3923 63.5866 41.6516 64.7196L48.1501 63.2316C47.9505 62.3592 47.76 61.2527 47.6181 60.1159L41.0026 60.9414ZM41.6516 64.7196C41.708 64.9649 41.7678 65.2104 41.8315 65.4514L48.277 63.7486C48.2348 63.5887 48.1925 63.4159 48.1501 63.2316L41.6516 64.7196ZM46 68.8641C46 67.9662 46.737 67.2219 47.6666 67.2219V73.8886C50.391 73.8886 52.6666 71.6759 52.6666 68.8641H46ZM47.6666 70.5062C46.737 70.5062 46 69.7617 46 68.8641H52.6666C52.6666 66.0521 50.391 63.8396 47.6666 63.8396V70.5062ZM49.3333 68.8641C49.3333 69.7617 48.5963 70.5062 47.6666 70.5062V63.8396C44.9423 63.8396 42.6666 66.0521 42.6666 68.8641H49.3333ZM47.6666 67.2219C48.5963 67.2219 49.3333 67.9662 49.3333 68.8641H42.6666C42.6666 71.6759 44.9423 73.8886 47.6666 73.8886V67.2219Z" fill="#FFB800"/>
</g>
</g>
<circle cx="121.5" cy="12.5" r="5.5" fill="#FFB800"/>
<circle cx="121.5" cy="12.5" r="5.5" fill="#FFB800"/>
<defs>
<filter id="filter0_d_419_2893" x="0" y="0" width="138" height="106" filterUnits="userSpaceOnUse" color-interpolation-filters="sRGB">
<feFlood flood-opacity="0" result="BackgroundImageFix"/>
<feColorMatrix in="SourceAlpha" type="matrix" values="0 0 0 0 0 0 0 0 0 0 0 0 0 0 0 0 0 0 127 0" result="hardAlpha"/>
<feOffset dx="1" dy="1"/>
<feGaussianBlur stdDeviation="1.5"/>
<feColorMatrix type="matrix" values="0 0 0 0 0 0 0 0 0 0 0 0 0 0 0 0 0 0 0.25 0"/>
<feBlend mode="normal" in2="BackgroundImageFix" result="effect1_dropShadow_419_2893"/>
<feBlend mode="normal" in="SourceGraphic" in2="effect1_dropShadow_419_2893" result="shape"/>
</filter>
</defs>
</svg>
